<svg xmlns="http://www.w3.org/2000/svg" viewBox="-4785.414 773 76.236 80"><defs><style>.a{fill:#00f2a9;}.b{fill:#322153;}</style></defs><g transform="translate(-4785.414 773)"><path class="a" d="M91.2,90.831a36.6,36.6,0,1,0-47.267,21.08A36.418,36.418,0,0,0,91.2,90.831ZM36.072,77.738A20.949,20.949,0,1,1,57.021,98.687,21.011,21.011,0,0,1,36.072,77.738Z" transform="translate(-18.91 -34.399)"/><path class="b" d="M72,7.463h0a13.715,13.715,0,0,1-1.44-1.047c-.131-.131-.262-.131-.393-.262-.393-.262-.655-.393-1.047-.655-.262-.131-.393-.262-.655-.393l-.786-.393a7.775,7.775,0,0,0-1.047-.524.457.457,0,0,0-.262-.131c-1.047-.524-2.095-.917-3.142-1.44L59.693,1.44c-.131,0-.131,0-.262-.131-.524-.131-.917-.262-1.44-.393-.262,0-.393-.131-.655-.131-.393-.131-.655-.131-1.047-.262-.262,0-.655-.131-.917-.131s-.524-.131-.786-.131c-.393,0-.786-.131-1.178-.131h-.524c-.524,0-.917-.131-1.44-.131H49.612A38.077,38.077,0,0,0,17.795,17.152a.128.128,0,0,1-.131.131c-.262.393-.524.917-.917,1.44a.457.457,0,0,1-.131.262,4.1,4.1,0,0,0-.655,1.309c-.131.131-.131.262-.262.524a12.167,12.167,0,0,0-.655,1.309c-.131.131-.131.262-.262.524-.262.655-.524,1.178-.786,1.833-.262.524-.393,1.178-.655,1.7-.131.262-.131.655-.262.917s-.131.524-.262.786a3.874,3.874,0,0,0-.262,1.309c0,.131-.131.262-.131.393a6.572,6.572,0,0,0-.262,1.571v.131a37.283,37.283,0,0,0,2.619,22.259A36.865,36.865,0,0,0,27.091,68.74a.128.128,0,0,1,.131.131c.393.262.917.655,1.309.917.131.131.262.131.393.262.393.262.655.393,1.047.655.262.131.393.262.655.393l.786.393a7.776,7.776,0,0,0,1.047.524c.131,0,.262.131.393.131,1.047.524,2.095.917,3.142,1.44a7.383,7.383,0,0,0,1.571.524,38.053,38.053,0,0,0,12.046,1.964A37.667,37.667,0,0,0,65.062,72.8,36.865,36.865,0,0,0,80.25,60.491l.131-.131c.262-.393.655-.917.917-1.309.131-.131.131-.262.262-.393a5.307,5.307,0,0,0,.655-1.178c.131-.131.262-.393.393-.524.131-.262.393-.655.524-.917l.393-.786.393-.786a3.92,3.92,0,0,1,.524-1.047c0-.131.131-.131.131-.262a15.355,15.355,0,0,1,.655-1.44,7.382,7.382,0,0,0,.524-1.571A37.3,37.3,0,0,0,84.44,22.782,37.742,37.742,0,0,0,72,7.463ZM81.952,23.7a35.353,35.353,0,0,1,3.011,13.093H82.345A32.1,32.1,0,0,0,73.7,15.974l1.833-1.833A37.069,37.069,0,0,1,81.952,23.7Zm.655,27.1h0A19.277,19.277,0,0,1,81.3,53.683c0,.131-.131.131-.131.262L79.6,56.694a.128.128,0,0,1-.131.131,31.167,31.167,0,0,1-4.059,5.237L71.347,58a1.3,1.3,0,0,0-1.833,1.833l.262.262A29.438,29.438,0,0,1,50.79,67.955V64.289a1.309,1.309,0,1,0-2.619,0v9.165A36.793,36.793,0,0,1,36.78,71.1h0a29.957,29.957,0,0,1-3.011-1.309.128.128,0,0,1-.131-.131c-.917-.524-1.964-1.047-2.881-1.571h0a38.553,38.553,0,0,1-5.368-4.059l9.3-9.3a23.813,23.813,0,0,0,6.809,4.19,21.486,21.486,0,0,0,7.987,1.44A22.231,22.231,0,0,0,66.109,23.306l5.5-5.5a29.438,29.438,0,0,1,7.856,18.985H75.8a1.309,1.309,0,0,0,0,2.619h9.165A42.013,42.013,0,0,1,82.607,50.8ZM23.425,36.792H14.259a43.117,43.117,0,0,1,.655-5.761V30.9a19.142,19.142,0,0,1,.655-2.619c0-.131.131-.262.131-.393a19.09,19.09,0,0,1,.917-2.488h0a29.953,29.953,0,0,1,1.309-3.011.128.128,0,0,1,.131-.131c.524-.917,1.047-1.964,1.571-2.881h0a38.551,38.551,0,0,1,4.059-5.368l9.3,9.3a23.813,23.813,0,0,0-4.19,6.809A22.132,22.132,0,0,0,32.983,52.9l-5.5,5.5a29.438,29.438,0,0,1-7.856-18.985h3.8a1.309,1.309,0,1,0,0-2.619ZM49.612,13.224a1.237,1.237,0,0,0,1.309-1.309V2.75a43.117,43.117,0,0,1,5.761.655h.131a15.315,15.315,0,0,1,2.619.655c.131,0,.131,0,.262.131a20.783,20.783,0,0,1,2.619.917h0a29.954,29.954,0,0,1,3.011,1.309.128.128,0,0,1,.131.131c.917.524,1.964,1.047,2.881,1.571h0A38.552,38.552,0,0,1,73.7,12.177l-9.3,9.3a23.813,23.813,0,0,0-6.809-4.19,22.132,22.132,0,0,0-22.782,4.19l-5.5-5.5A29.438,29.438,0,0,1,48.3,8.118v3.8A1.237,1.237,0,0,0,49.612,13.224ZM31.281,31.031a19.647,19.647,0,1,1,11.26,25.4A19.687,19.687,0,0,1,31.281,31.031Zm3.928-25.27A35.352,35.352,0,0,1,48.3,2.75V5.368A32.1,32.1,0,0,0,27.484,14.01l-1.833-1.833A37.069,37.069,0,0,1,35.209,5.761ZM17.271,52.5a35.352,35.352,0,0,1-3.011-13.093h2.619A32.1,32.1,0,0,0,25.52,60.23l-1.833,1.833A37.069,37.069,0,0,1,17.271,52.5ZM64.014,70.442a35.352,35.352,0,0,1-13.093,3.011V70.835A32.723,32.723,0,0,0,71.87,62.194L73.7,64.027A40.2,40.2,0,0,1,64.014,70.442Z" transform="translate(-11.501 0)"/></g></svg>