<svg xmlns="http://www.w3.org/2000/svg" viewBox="-4398.926 771 80 80"><defs><style>.a{fill:#00f2a9;}.b{fill:#322153;}</style></defs><g transform="translate(-4398.926 771)"><g transform="translate(61.219 12.163)"><circle class="a" cx="6.367" cy="6.367" r="6.367"/><circle class="a" cx="6.367" cy="6.367" r="6.367" transform="translate(0 21.469)"/><circle class="a" cx="6.367" cy="6.367" r="6.367" transform="translate(0 45.938)"/></g><path class="b" d="M358.9,32a6.9,6.9,0,1,0,6.9,6.9A6.83,6.83,0,0,0,358.9,32Zm0,11.034a4.138,4.138,0,1,1,4.138-4.138A4.064,4.064,0,0,1,358.9,43.034Z" transform="translate(-291.31 -26.483)"/><path class="b" d="M67.862,33.379A1.3,1.3,0,0,0,66.483,32h-33.1a1.379,1.379,0,1,0,0,2.759h33.1A1.3,1.3,0,0,0,67.862,33.379Z" transform="translate(-26.483 -26.483)"/><circle class="b" cx="1.379" cy="1.379" r="1.379" transform="translate(16.552 16.552)"/><circle class="b" cx="1.379" cy="1.379" r="1.379" transform="translate(22.069 16.552)"/><circle class="b" cx="1.379" cy="1.379" r="1.379" transform="translate(27.586 16.552)"/><circle class="b" cx="1.379" cy="1.379" r="1.379" transform="translate(33.103 16.552)"/><circle class="b" cx="1.379" cy="1.379" r="1.379" transform="translate(38.621 16.552)"/><path class="b" d="M156.966,64H129.379a1.379,1.379,0,1,0,0,2.759h27.586a1.379,1.379,0,0,0,0-2.759Z" transform="translate(-105.931 -52.966)"/><path class="b" d="M358.9,160a6.9,6.9,0,1,0,6.9,6.9A6.83,6.83,0,0,0,358.9,160Zm0,11.034a4.138,4.138,0,1,1,4.138-4.138A4.064,4.064,0,0,1,358.9,171.034Z" transform="translate(-291.31 -132.414)"/><path class="b" d="M183.448,160H161.379a1.379,1.379,0,0,0,0,2.759h22.069a1.379,1.379,0,1,0,0-2.759Z" transform="translate(-132.414 -132.414)"/><circle class="b" cx="1.379" cy="1.379" r="1.379" transform="translate(22.069 38.621)"/><circle class="b" cx="1.379" cy="1.379" r="1.379" transform="translate(27.586 38.621)"/><circle class="b" cx="1.379" cy="1.379" r="1.379" transform="translate(33.103 38.621)"/><circle class="b" cx="1.379" cy="1.379" r="1.379" transform="translate(38.621 38.621)"/><circle class="b" cx="1.379" cy="1.379" r="1.379" transform="translate(44.138 38.621)"/><circle class="b" cx="1.379" cy="1.379" r="1.379" transform="translate(49.655 38.621)"/><path class="b" d="M77.517,192H33.379a1.379,1.379,0,0,0,0,2.759H77.517a1.379,1.379,0,0,0,0-2.759Z" transform="translate(-26.483 -158.897)"/><path class="b" d="M6.9,68.966H33.1V73.1a3.948,3.948,0,0,1-4.138,4.138H6.9A1.379,1.379,0,0,0,6.9,80H28.966c2.345,0,6.9-1.379,6.9-6.9V68.966h2.759v9.655a1.379,1.379,0,1,0,2.759,0V68.966h2.759V73.1a1.379,1.379,0,1,0,2.759,0V68.966H73.1a6.83,6.83,0,0,0,6.9-6.9V51.034a6.99,6.99,0,0,0-2.759-5.517A6.99,6.99,0,0,0,80,40V28.966a6.99,6.99,0,0,0-2.759-5.517A6.99,6.99,0,0,0,80,17.931V6.9A6.83,6.83,0,0,0,73.1,0H6.9A6.83,6.83,0,0,0,0,6.9V17.931a6.99,6.99,0,0,0,2.759,5.517A6.99,6.99,0,0,0,0,28.966V40a6.99,6.99,0,0,0,2.759,5.517A6.99,6.99,0,0,0,0,51.034V62.069A6.83,6.83,0,0,0,6.9,68.966ZM2.759,17.931V6.9A4.064,4.064,0,0,1,6.9,2.759H73.1A4.064,4.064,0,0,1,77.241,6.9V17.931A4.064,4.064,0,0,1,73.1,22.069H6.9A4.064,4.064,0,0,1,2.759,17.931ZM2.759,40V28.966A4.064,4.064,0,0,1,6.9,24.828H73.1a4.064,4.064,0,0,1,4.138,4.138V40A4.064,4.064,0,0,1,73.1,44.138H6.9A4.064,4.064,0,0,1,2.759,40Zm0,11.034A4.064,4.064,0,0,1,6.9,46.9H73.1a4.064,4.064,0,0,1,4.138,4.138V62.069A4.064,4.064,0,0,1,73.1,66.207H6.9a4.064,4.064,0,0,1-4.138-4.138Z"/><path class="b" d="M358.9,301.793a6.9,6.9,0,1,0-6.9-6.9A6.83,6.83,0,0,0,358.9,301.793Zm0-11.034a4.138,4.138,0,1,1-4.138,4.138A4.064,4.064,0,0,1,358.9,290.759Z" transform="translate(-291.31 -238.345)"/><path class="b" d="M33.379,290.759H49.931a1.379,1.379,0,1,0,0-2.759H33.379a1.379,1.379,0,1,0,0,2.759Z" transform="translate(-26.483 -238.345)"/><circle class="b" cx="1.379" cy="1.379" r="1.379" transform="translate(5.517 60.69)"/><circle class="b" cx="1.379" cy="1.379" r="1.379" transform="translate(11.034 60.69)"/><circle class="b" cx="1.379" cy="1.379" r="1.379" transform="translate(16.552 60.69)"/><circle class="b" cx="1.379" cy="1.379" r="1.379" transform="translate(22.069 60.69)"/><circle class="b" cx="1.379" cy="1.379" r="1.379" transform="translate(44.138 60.69)"/><circle class="b" cx="1.379" cy="1.379" r="1.379" transform="translate(49.655 60.69)"/><path class="b" d="M33.379,322.759H77.517a1.379,1.379,0,1,0,0-2.759H33.379a1.379,1.379,0,1,0,0,2.759Z" transform="translate(-26.483 -264.828)"/></g></svg>