<svg xmlns="http://www.w3.org/2000/svg" viewBox="-4010.926 773 79.939 80"><defs><style>.a{fill:#00f2a9;}.b{fill:#322153;}</style></defs><g transform="translate(-4010.926 773)"><ellipse class="a" cx="22.067" cy="22.067" rx="22.067" ry="22.067" transform="translate(17.874 23.452)"/><g transform="translate(0)"><path class="b" d="M90.61,90.924h0c.138,0,.138-.138,0,0a34.3,34.3,0,0,0,.138-48.686V42.1c0-.138,0,0-.138,0A34.182,34.182,0,0,0,66.335,32.032a34.622,34.622,0,0,0-19.309,5.931,1.4,1.4,0,1,0,1.517,2.345A30.773,30.773,0,0,1,64.956,34.79v4.138a1.3,1.3,0,0,0,1.379,1.379A26.193,26.193,0,0,1,92.54,66.512a1.3,1.3,0,0,0,1.379,1.379h4.138a31.247,31.247,0,0,1-8.275,20l-2.9-2.9a1.365,1.365,0,0,0-1.931,1.931l2.9,2.9a31.554,31.554,0,0,1-20,8.275V93.959a1.379,1.379,0,0,0-2.758,0V98.1a31.247,31.247,0,0,1-20-8.275l2.9-2.9a1.365,1.365,0,0,0-1.931-1.931l-2.9,2.9a31.554,31.554,0,0,1-8.275-20h4.138a1.379,1.379,0,0,0,0-2.758H34.613A32,32,0,0,1,39.854,49a1.4,1.4,0,1,0-2.345-1.517,34.563,34.563,0,0,0-5.655,19.033A34.182,34.182,0,0,0,41.923,90.786v.138c0,.138,0,0,.138,0a34.3,34.3,0,0,0,48.548,0Zm-4.827-45.79a28.453,28.453,0,0,0-18.068-7.448v-2.9a31.247,31.247,0,0,1,20,8.275Zm1.931,1.931,1.931-1.931a31.554,31.554,0,0,1,8.275,20H95.161A28.453,28.453,0,0,0,87.713,47.065Z" transform="translate(-26.394 -26.51)"/><path class="b" d="M6.465.143a1.206,1.206,0,0,0-.828,1.241V5.522H1.5A1.206,1.206,0,0,0,.259,6.35,1.5,1.5,0,0,0,.535,7.867l5.517,5.517a1.252,1.252,0,0,0,.965.414h4.965L36.808,38.623H34.6a1.379,1.379,0,1,0,0,2.758h5.517a.507.507,0,0,0,.414-.138h.138c.138,0,.138-.138.276-.138a.135.135,0,0,0,.138-.138c.138-.138.138-.276.276-.414h0c0-.138.138-.276.138-.414h0V34.623a1.379,1.379,0,1,0-2.758,0V36.83L13.913,12V6.9a1.252,1.252,0,0,0-.414-.965L7.983.419A1.259,1.259,0,0,0,6.465.143Zm1.1,10.9L4.81,8.28H6.465l2.758,2.758ZM8.4,4.695l2.758,2.758V9.108L8.4,6.35Z" transform="translate(-0.177 0)"/><path class="b" d="M100.682,107.617a1.4,1.4,0,0,0-1.931.552,23.008,23.008,0,0,0-2.9,11.31A23.447,23.447,0,1,0,119.3,96.032a23.008,23.008,0,0,0-11.31,2.9,1.42,1.42,0,0,0,1.379,2.483A21.052,21.052,0,0,1,119.44,98.79a20.688,20.688,0,1,1-20.688,20.688,19.959,19.959,0,0,1,2.621-10.068A1.575,1.575,0,0,0,100.682,107.617Z" transform="translate(-79.36 -79.476)"/><ellipse class="b" cx="1.379" cy="1.379" rx="1.379" ry="1.379" transform="translate(38.563 22.073)"/><ellipse class="b" cx="1.379" cy="1.379" rx="1.379" ry="1.379" transform="translate(38.563 55.174)"/><ellipse class="b" cx="1.379" cy="1.379" rx="1.379" ry="1.379" transform="translate(22.012 38.624)"/><ellipse class="b" cx="1.379" cy="1.379" rx="1.379" ry="1.379" transform="translate(55.113 38.624)"/><ellipse class="b" cx="1.379" cy="1.379" rx="1.379" ry="1.379" transform="translate(50.293 50.328)"/><ellipse class="b" cx="1.379" cy="1.379" rx="1.379" ry="1.379" transform="translate(26.859 50.353)"/><ellipse class="b" cx="1.379" cy="1.379" rx="1.379" ry="1.379" transform="translate(50.266 26.893)"/><path class="b" d="M263.852,224.032a1.3,1.3,0,0,0-1.379,1.379,37.259,37.259,0,0,1-37.239,37.239,1.379,1.379,0,1,0,0,2.758,40.026,40.026,0,0,0,40-40A1.3,1.3,0,0,0,263.852,224.032Z" transform="translate(-185.292 -185.408)"/></g></g></svg>